# xmcd
# 
# Track frame offsets:
#   150
#   21937
#   39564
#   69123
#   86404
#   106112
# 
# Disc length: 1526 seconds
# 
# Revision: 1
# Processed by: cddbd v1.5.1PL0 Copyright (c) Steve Scherf et al.
# Submitted via: VOLTOCDX V1.0.24 
# 
DISCID=3c05f406
DTITLE=My Artist - My Title
DYEAR=2005
DGENRE=Description of the extended genre
TTITLE0=Jane Doe
TTITLE1=Goodbye
TTITLE2=Piano and I
TTITLE3=
TTITLE4=
TTITLE5=
EXTD=Extended CD description
EXTT0=
EXTT1=
EXTT2=
EXTT3=
EXTT4=
EXTT5=
PLAYORDER=
